<?xml version="1.0" ?><!DOCTYPE svg  PUBLIC '-//W3C//DTD SVG 1.1//EN'  'http://www.w3.org/Graphics/SVG/1.1/DTD/svg11.dtd'><svg enable-background="new 0 0 91 91" height="91px" id="Layer_1" version="1.1" viewBox="0 0 91 91" width="91px" xml:space="preserve" xmlns="http://www.w3.org/2000/svg" xmlns:xlink="http://www.w3.org/1999/xlink"><g><path d="M25.878,74.469h35.129c3.595,0,6.518-2.924,6.518-6.52v-31.75c0-0.038-0.019-0.07-0.021-0.108   c-0.01-0.154-0.039-0.302-0.09-0.447c-0.02-0.057-0.037-0.114-0.063-0.167c-0.071-0.151-0.165-0.29-0.281-0.417   c-0.021-0.022-0.032-0.05-0.054-0.07c-0.006-0.005-0.008-0.012-0.013-0.017l-15.015-14.4c-0.141-0.134-0.302-0.232-0.473-0.311   c-0.049-0.022-0.1-0.033-0.151-0.05c-0.146-0.051-0.293-0.081-0.446-0.091c-0.037-0.002-0.068-0.021-0.106-0.021H25.878   c-0.938,0-1.699,0.761-1.699,1.7v50.97C24.179,73.708,24.939,74.469,25.878,74.469z M52.511,25.785l9.086,8.714H55.63   c-1.72,0-3.119-1.399-3.119-3.12V25.785z M27.578,23.499H49.11v7.881c0,3.595,2.924,6.52,6.52,6.52h8.495v30.05   c0,1.721-1.399,3.12-3.118,3.12H27.578V23.499z"/></g></svg>