<svg width="50" height="31" viewBox="0 0 50 31" fill="none" xmlns="http://www.w3.org/2000/svg">
<rect x="0.5" y="0.833252" width="41.8571" height="29.6667" fill="black" stroke="#9E9E9E"/>
<rect x="1.02042" y="1.2915" width="40.8163" height="4.79167" fill="#9B9B9B"/>
<path d="M16.3021 24.445C15.4754 25.005 14.3421 25.285 12.9021 25.285C10.8754 25.285 9.22872 24.665 7.96205 23.425C6.69538 22.1717 6.06205 20.4717 6.06205 18.325C6.06205 16.2983 6.70205 14.6517 7.98205 13.385C9.27538 12.105 10.8954 11.465 12.8421 11.465C14.2421 11.465 15.3821 11.705 16.2621 12.185V13.845C15.6754 13.5383 15.1487 13.3183 14.6821 13.185C14.2154 13.0517 13.6021 12.985 12.8421 12.985C11.3887 12.985 10.1754 13.4783 9.20205 14.465C8.24205 15.4517 7.76205 16.7383 7.76205 18.325C7.76205 19.9783 8.24205 21.2983 9.20205 22.285C10.1621 23.2717 11.4354 23.765 13.0221 23.765C14.3021 23.765 15.3954 23.425 16.3021 22.745V24.445ZM20.6533 17.525C20.6533 17.8583 20.54 18.1383 20.3133 18.365C20.0866 18.5783 19.8066 18.685 19.4733 18.685C19.14 18.685 18.86 18.5783 18.6333 18.365C18.42 18.1383 18.3133 17.8583 18.3133 17.525C18.3133 17.205 18.42 16.9317 18.6333 16.705C18.86 16.4783 19.14 16.365 19.4733 16.365C19.8066 16.365 20.0866 16.4783 20.3133 16.705C20.54 16.9317 20.6533 17.205 20.6533 17.525ZM20.3133 23.145C20.54 23.3717 20.6533 23.6517 20.6533 23.985C20.6533 24.3183 20.54 24.5983 20.3133 24.825C20.0866 25.0383 19.8066 25.145 19.4733 25.145C19.14 25.145 18.86 25.0383 18.6333 24.825C18.42 24.5983 18.3133 24.3183 18.3133 23.985C18.3133 23.6517 18.42 23.3717 18.6333 23.145C18.86 22.9183 19.14 22.805 19.4733 22.805C19.8066 22.805 20.0866 22.9183 20.3133 23.145ZM30.0803 27.185H28.4803L21.1803 10.985H22.8003L30.0803 27.185ZM32.3872 23.265C32.6139 23.4917 32.7272 23.7717 32.7272 24.105C32.7272 24.4383 32.6139 24.7183 32.3872 24.945C32.1605 25.1717 31.8805 25.285 31.5472 25.285C31.2139 25.285 30.9339 25.1717 30.7072 24.945C30.4805 24.7183 30.3672 24.4383 30.3672 24.105C30.3672 23.7717 30.4805 23.4917 30.7072 23.265C30.9339 23.0383 31.2139 22.925 31.5472 22.925C31.8805 22.925 32.1605 23.0383 32.3872 23.265Z" fill="white"/>
<path d="M34.5 3.86C34.7267 3.63333 34.84 3.35333 34.84 3.02C34.84 2.68667 34.7267 2.40667 34.5 2.18C34.2733 1.95333 33.9933 1.84 33.66 1.84C33.3267 1.84 33.0467 1.95333 32.82 2.18C32.5933 2.40667 32.48 2.68667 32.48 3.02C32.48 3.35333 32.5933 3.63333 32.82 3.86C33.0467 4.08667 33.3267 4.2 33.66 4.2C33.9933 4.2 34.2733 4.08667 34.5 3.86ZM37.8203 3.86C38.047 3.63333 38.1603 3.35333 38.1603 3.02C38.1603 2.68667 38.047 2.40667 37.8203 2.18C37.5936 1.95333 37.3136 1.84 36.9803 1.84C36.647 1.84 36.367 1.95333 36.1403 2.18C35.9136 2.40667 35.8003 2.68667 35.8003 3.02C35.8003 3.35333 35.9136 3.63333 36.1403 3.86C36.367 4.08667 36.647 4.2 36.9803 4.2C37.3136 4.2 37.5936 4.08667 37.8203 3.86ZM41.1406 3.86C41.3673 3.63333 41.4806 3.35333 41.4806 3.02C41.4806 2.68667 41.3673 2.40667 41.1406 2.18C40.914 1.95333 40.634 1.84 40.3006 1.84C39.9673 1.84 39.6873 1.95333 39.4606 2.18C39.234 2.40667 39.1206 2.68667 39.1206 3.02C39.1206 3.35333 39.234 3.63333 39.4606 3.86C39.6873 4.08667 39.9673 4.2 40.3006 4.2C40.634 4.2 40.914 4.08667 41.1406 3.86Z" fill="black"/>
</svg>
