 <!DOCTYPE svg PUBLIC "-//W3C//DTD SVG 1.1//EN" "http://www.w3.org/Graphics/SVG/1.1/DTD/svg11.dtd">
<svg id="fee04113-53a2-4b54-a786-d18eaa943129" data-name="Layer 1" xmlns="http://www.w3.org/2000/svg" width="865.76" height="682.89" viewBox="0 0 865.76 682.89">
<defs>
<style xmlns="http://www.w3.org/1999/xhtml">*, ::after, ::before { box-sizing: border-box; }
img, svg { vertical-align: middle; }
</style>
<style xmlns="http://www.w3.org/1999/xhtml">*, body, html { -webkit-font-smoothing: antialiased; }
img, svg { max-width: 100%; }
</style>
</defs>
<path d="M363.76,526.2S174.41,572.82,120.55,381.34c0,0-43.43-81.58,46.91-156.51,0,0,170.25-134.86,196.3-158.17,0,0,57.33-51.62,144.19-25,0,0,83.73,1.34,131.12,62.74a104.73,104.73,0,0,1,16.29,31.47c3.51,10.66,15.21,32.33,54.11,64,0,0,125.08,108.22-36.48,263.07C673,462.93,596.55,571.15,363.76,526.2Z" fill="#0071f2" data-primary="true"/>
<path d="M363.76,526.2S174.41,572.82,120.55,381.34c0,0-43.43-81.58,46.91-156.51,0,0,170.25-134.86,196.3-158.17,0,0,57.33-51.62,144.19-25,0,0,83.73,1.34,131.12,62.74a104.73,104.73,0,0,1,16.29,31.47c3.51,10.66,15.21,32.33,54.11,64,0,0,125.08,108.22-36.48,263.07C673,462.93,596.55,571.15,363.76,526.2Z" fill="#fff" opacity="0.7"/>
<rect x="528.4" y="104.24" width="179" height="99.08" rx="14.26" fill="#0071f2" data-primary="true"/>
<rect x="528.4" y="104.24" width="179" height="99.08" rx="14.26" fill="#fff" opacity="0.3"/>
<path d="M566.58,122.3c-18.12,0-32.81,15-32.81,33.55s14.69,33.55,32.81,33.55,32.8-15,32.8-33.55S584.7,122.3,566.58,122.3Zm0,60.6c-14.61,0-26.45-12.11-26.45-27.05s11.84-27,26.45-27,26.45,12.11,26.45,27S581.19,182.9,566.58,182.9Z" fill="#0071f2" data-primary="true"/>
<ellipse cx="432.88" cy="579.18" rx="107.41" ry="33.39" fill="#0071f2" data-primary="true"/>
<ellipse cx="432.88" cy="579.18" rx="107.41" ry="33.39" fill="#fff" opacity="0.7"/>
<polygon points="439.71 296.93 454.24 378.96 503.46 385.93 498.36 295.15 494.03 285.59 439.71 296.93" fill="#2f2e41" data-secondary="true"/>
<polygon points="439.71 296.93 454.24 378.96 503.46 385.93 498.36 295.15 494.03 285.59 439.71 296.93" opacity="0.3"/>
<path d="M389.61,265.74s7.24-17.88,14.26-34.48c0,0,13.83-35.54,27.24-37.24l44.69-.21s18.09-3.41,33.83,32.13l-16.38,57-34.34,18.94-24.82-13-8.94-33.19s-11.28,16-16.6,19.79Z" fill="#0071f2" data-primary="true"/>
<path d="M442.35,262l5.59,12.23,22.88,37.9,18.34-4.37,3.49-17.46s-11.53-25.33-11.53-33.54C481.12,256.72,446.89,262,442.35,262Z" fill="#e6e7e8"/>
<ellipse cx="532.01" cy="528.38" rx="32.46" ry="12.3" fill="#bcbec0"/>
<rect x="527.02" y="481.84" width="7.85" height="43.16" fill="#a7a9ac"/>
<path d="M517,459.81h27.11a0,0,0,0,1,0,0V487.1a2,2,0,0,1-2,2H519a2,2,0,0,1-2-2V459.81a0,0,0,0,1,0,0Z" fill="#bcbec0"/>
<path d="M517,468s61.35-6.07,70.27-46c0,0,3.82-11.68,4.89-37,0,0,1.07-12.22,6.85-28.72,0,0,21.22-54-5.78-72.85,0,0-23.14-18-47.57-4.72L500.63,437.33Z" fill="#a7a9ac"/>
<path d="M547.79,309.64s29.34.35,28.29,33.19l-6.63,64.62s-.35,33.54-29.7,45.76L524,377.41,530,320.82l12.58-10.13Z" opacity="0.2"/>
<path d="M548.61,402.08l2.77,11.85-11.06-6.13A43.93,43.93,0,0,0,548.61,402.08Z" fill="#0071f2" data-primary="true"/>
<path d="M548.61,402.08l2.77,11.85-11.06-6.13A43.93,43.93,0,0,0,548.61,402.08Z" opacity="0.2"/>
<path d="M544.3,441.34s3.84,14.67-33.89,31.43l-22.9,13.55a3,3,0,0,1-3.52-.38l-7.81-7.23Z" fill="#2f2e41" data-secondary="true"/>
<path d="M443.69,570.59s-14,11.52-2.79,14c0,0,5.58,2.79,24.8-10.48,0,0,17.11-9.43,9.78-22.71Z" fill="#0071f2" data-primary="true"/>
<path d="M475.48,551.37S480,508.06,479,500l-25.15,45.76-1.05,14s-9.06,8.81-9.55,13.53a2,2,0,0,0,2.16,2.23C448.91,575.29,459.29,572.58,475.48,551.37Z" fill="#f9b499"/>
<path d="M413.51,572.51s-37.24,32.66-26.06,37.55c0,0,9.08,5.59,26.2-6.64,0,0,22.35-17.81,18.86-29.69Z" fill="#0071f2" data-primary="true"/>
<path d="M484.21,486.4s-20.79,58.47-48.9,85.2a44.11,44.11,0,0,0-5.62,6.36c-3.28,4.6-9.25,12.57-14.23,17.08a12.8,12.8,0,0,1-8.62,3.35c-3.11,0-7.22-.39-9.19-2.25l0,0a3,3,0,0,1-.16-4c2.8-3.49,11.32-14,17.24-21,1.44-1.69,3-3.3,4.54-4.87s4.45-5.25,8.72-14.5c0,0,26.89-60.78,33.53-68.46l14.67-4.54,3.26,3.12Z" fill="#f9b499"/>
<path d="M484.21,486.4s-20.79,58.47-48.9,85.2a44.11,44.11,0,0,0-5.62,6.36c-3.21,4.51-9,12.26-13.94,16.82a13.49,13.49,0,0,1-9.3,3.6c-3.07,0-6.92-.46-8.8-2.24,2.51.27,15.8.67,26.82-18.22l17.82-22.35s32.32-60.61,37.14-73.73Z" fill="#f7a48b"/>
<polygon points="217.53 351.26 217.53 515.25 225.11 520.03 225.95 355.19 217.53 351.26" fill="#bcbec0"/>
<polygon points="225.11 520.03 303.17 474.24 306.6 405.09 226.03 357.67 225.11 520.03" fill="#d1d3d4"/>
<polygon points="256.81 397.77 307.34 419.6 306.61 529.74 256.57 500.79 256.81 397.77" fill="#2f2e41" data-secondary="true"/>
<polygon points="261.96 428.92 281.59 438.98 280.36 500.79 261.23 491.96 261.96 428.92" opacity="0.2"/>
<polygon points="262.7 418.13 262.94 424.75 277.17 430.88 277.66 424.01 262.7 418.13" opacity="0.2"/>
<polygon points="285.02 440.94 285.02 434.32 303.42 440.94 303.17 448.05 285.02 440.94" opacity="0.2"/>
<polygon points="285.02 444.62 284.29 470.62 302.44 477.49 303.91 452.71 285.02 444.62" opacity="0.2"/>
<polygon points="306.61 529.74 405.37 475.06 401.96 419.88 319.5 413.26 307.34 419.6 306.61 529.74" fill="#2f2e41" data-secondary="true"/>
<polygon points="306.61 529.74 405.37 475.06 401.96 419.88 319.5 413.26 307.34 419.6 306.61 529.74" opacity="0.2"/>
<polygon points="256.81 397.77 307.34 419.6 319.5 413.26 279.37 388.78 256.81 397.77" fill="#2f2e41" data-secondary="true"/>
<polygon points="256.81 397.77 307.34 419.6 319.5 413.26 279.37 388.78 256.81 397.77" opacity="0.3"/>
<path d="M460.53,363.52l-2.38-1.32V333.9s13.65-17.18,25.37-20.61v29.45a16,16,0,0,1-2.2,4.79,17.85,17.85,0,0,0-6.47,9Z" fill="#0071f2" data-primary="true"/>
<path d="M460.53,363.52l-2.38-1.32V333.9s13.65-17.18,25.37-20.61v29.45a16,16,0,0,1-2.2,4.79,17.85,17.85,0,0,0-6.47,9Z" opacity="0.2"/>
<polygon points="441.65 276.28 461.04 321.35 486.88 311.21 474.83 265.1 441.65 276.28" fill="#fff"/>
<path d="M486,278.45s-7.46-2.8-17.35,5.6c0,0-8.2,5.6-5.22,8,0,0,1.12,1.49,6.53-3.17,0,0,6.34-4.85,10.63-3.92,0,0-9.51,10.26-3.17,13.62,0,0,4.11,1.87,4.48,4.29,0,0,.74,4.85,7.09,3.73a35,35,0,0,1,2.19-13.92A36,36,0,0,1,486,278.45Z" fill="#f7a48b"/>
<path d="M477.39,298.6s4.11-6,7.09-6.72a35.82,35.82,0,0,0-2.61,11A13.09,13.09,0,0,0,477.39,298.6Z" fill="#f79984"/>
<path d="M491.15,292.7s-5.27,12.75-.77,17.25a29,29,0,0,1,11.93-.3s4.54.91,3.89-15.18C506.2,294.47,497.07,298.18,491.15,292.7Z" fill="#2f2e41" data-secondary="true"/>
<path d="M405.15,273.61s6.59-37.88,18.08-49.58c0,0-1.91,20.85,1.92,31.71,0,0-11.49,16.59-16.6,19.79Z" opacity="0.2"/>
<polygon points="215.66 347.53 453.22 486.27 568.38 423.29 319.9 285.59 215.66 347.53" fill="#bcbec0"/>
<polygon points="568.38 423.29 568.38 428.32 453.4 491.65 215.66 352.62 215.66 347.53 453.22 486.27 568.38 423.29" fill="#a7a9ac"/>
<path d="M502.31,309.65s-11.31-2.42-18.79,3.64c0,0-.48,20.68-1.43,29.43a7.84,7.84,0,0,1-1.85,4.28c-3.12,3.63-9.61,12.71-2.65,18.84a4.08,4.08,0,0,1,1.33,3l.1,4.94,32,17.72s-15.9,7.06-18.25,11.1c0,0,6.54.81,5.33,15.76l26.66-6.26s25.86-2.83,27.28-17.17c0,0,6.06-30.51,2.62-48.49,0,0-1.61-23-18.18-29.09L533.83,307s-12.13,6.87-12.73,7.07S511.6,320,502.31,309.65Z" fill="#0071f2" data-primary="true"/>
<path d="M494,309.32s4.64,14.27,18.58,13.87a35.58,35.58,0,0,0,22.3-11.89L533.83,307,521.1,314.1s-9.3,6.46-18.79-4.45C502.31,309.65,497.13,308.82,494,309.32Z" fill="#fff" opacity="0.3"/>
<path d="M501,385.93l10,5.55s-14.69,6-18.25,11.1a3.85,3.85,0,0,1,3,2.11s29.09-19,32.64-16.65c1.21.81,4.24,4.16,4.44,7.84,0,0,1-4,0-6.43a12.88,12.88,0,0,1,6.87,5.46s.81-6-9.49-7.85c0,0,2.31-67.55,19.84-56.82,0,0-2.45-6-6.82-8.94,0,0-15,4.18-14.52,23.89,0,0,.82,24.57-7.31,29.86Z" opacity="0.2"/>
<path d="M492.74,402.58s-11.16,2.09-15.79,0c0,0-2.6-2.22-7.23,2.11L465.38,408a3.12,3.12,0,0,0-1.18,2.1l-.6,5.48a1.39,1.39,0,0,0,1.39,1.55h0a1.4,1.4,0,0,0,1.39-1.2l.69-4.71a3.06,3.06,0,0,1,1.78-2.36l2-.9s-4.07,9.84,2.6,10.34a4.54,4.54,0,0,0,5.37,1.25s1.48,2.79,6.67,0c0,0,7.48-.55,12.72-3.52C498.19,416.07,499.27,405.22,492.74,402.58Z" fill="#f9b499"/>
<path d="M473.43,418.59a14.31,14.31,0,0,1,0-7.5,14.31,14.31,0,0,1,0,7.5Z" fill="#f7a48b"/>
<path d="M478.8,419.59a15,15,0,0,1-.5-4.08,14.69,14.69,0,0,1,.5-4.09,15.07,15.07,0,0,1,.5,4.09A15.4,15.4,0,0,1,478.8,419.59Z" fill="#f7a48b"/>
<path d="M491.2,402.84s8.35,7.29,3.72,11.09c0,0-10,3.45-9.45,5.66,0,0,10.07-1.11,12.72-3.52,0,0,1.63-10.29-5.45-13.49Z" fill="#f7a48b"/>
<path d="M524.08,302.49l-5,12.62c-9.95,3.84-16.75-5.46-16.75-5.46,1.63-.46,2.59-2.51,3.15-4.95a37.37,37.37,0,0,0,.76-7.67V297c0-1.49,0-2.49,0-2.49l.12,0a17.51,17.51,0,0,0,6.44-2.47l.16-.28a48.08,48.08,0,0,0,8.45-6.1s0,0,0,0l1.61,9.18.16.94C525.46,301.49,524.08,302.49,524.08,302.49Z" fill="#f9b499"/>
<polygon points="278.44 296.93 313.04 310.08 344.95 286.45 320.34 274.76 278.44 296.93" fill="#fff"/>
<polygon points="278.44 334.2 278.44 296.93 313.04 310.08 313.52 354.17 278.44 334.2" fill="#e6e7e8"/>
<polygon points="313.52 354.17 313.04 310.08 344.95 286.45 345.19 332.74 313.52 354.17" fill="#d1d3d4"/>
<path d="M307.43,316.17c-2.25-.49-4.47-1.09-6.69-1.71s-4.42-1.28-6.61-1.95-4.38-1.41-6.54-2.19l-3.25-1.16c-1.07-.43-2.15-.82-3.22-1.27,1.13.23,2.25.53,3.37.8l3.33.9c2.22.6,4.41,1.28,6.61,2s4.38,1.41,6.54,2.18S305.3,315.28,307.43,316.17Z" fill="#fff" opacity="0.3"/>
<path d="M314.5,316.17c2.1-1.89,4.28-3.69,6.46-5.48s4.41-3.53,6.63-5.27,4.48-3.43,6.77-5.08l3.43-2.48c1.17-.8,2.32-1.62,3.5-2.4-1,1-2.13,1.86-3.2,2.79l-3.26,2.69c-2.18,1.8-4.4,3.54-6.63,5.27s-4.48,3.43-6.77,5.09S316.86,314.61,314.5,316.17Z" fill="#fff" opacity="0.3"/>
<path d="M278.2,313.25a10.55,10.55,0,0,1,3.43.49,10.71,10.71,0,0,1,3.15,1.46,12.14,12.14,0,0,1-6.58-1.95Z" fill="#fff" opacity="0.3"/>
<path d="M290.14,317.63c3.85.76,7.61,1.81,11.35,2.93s7.44,2.38,11.06,3.89c-3.85-.76-7.61-1.81-11.35-2.93S293.76,319.14,290.14,317.63Z" fill="#fff" opacity="0.3"/>
<path d="M278.2,322.5c5.89,2.06,11.73,4.25,17.57,6.43l8.73,3.36q4.37,1.66,8.71,3.42l-.44.05,5.62-3.87c1.87-1.3,3.77-2.55,5.66-3.82s3.77-2.55,5.67-3.79l5.73-3.73L330,324.62c-1.82,1.36-3.68,2.67-5.52,4s-3.69,2.67-5.55,4l-5.58,3.93-.21.15-.24-.09q-4.37-1.68-8.71-3.41l-8.69-3.46C289.69,327.35,283.92,325,278.2,322.5Z" fill="#fff" opacity="0.3"/>
<path d="M291.36,331.27a40.72,40.72,0,0,1-6.53-2.09,41.59,41.59,0,0,1-6.14-3,40.6,40.6,0,0,1,6.52,2.09A43.23,43.23,0,0,1,291.36,331.27Z" fill="#fff" opacity="0.3"/>
<path d="M320.1,342.24a76,76,0,0,1,14.37-9.75,75.13,75.13,0,0,1-14.37,9.75Z" fill="#fff" opacity="0.3"/>
<path d="M278.69,332.25c3,1.27,6,2.65,8.94,4s5.89,2.83,8.82,4.28,5.84,2.95,8.72,4.49l4.32,2.32c1.43.8,2.87,1.58,4.28,2.41-1.52-.63-3-1.32-4.5-2l-4.44-2.06c-3-1.38-5.9-2.83-8.83-4.29s-5.83-2.94-8.71-4.48S281.52,333.89,278.69,332.25Z" fill="#fff" opacity="0.3"/>
<path d="M313.52,354.17c2.53-2.27,5.13-4.46,7.74-6.63s5.26-4.31,7.91-6.43,5.33-4.2,8.05-6.24l4.07-3.06c1.39-1,2.75-2,4.15-3-1.26,1.14-2.56,2.24-3.84,3.36l-3.9,3.27c-2.61,2.18-5.26,4.31-7.91,6.43s-5.33,4.2-8.05,6.24S316.31,352.22,313.52,354.17Z" fill="#fff" opacity="0.3"/>
<path d="M523.18,294.4s-.06.13-.19.37a19.33,19.33,0,0,1-17.53,9.93,37.37,37.37,0,0,0,.76-7.67V297a13.25,13.25,0,0,0,0-2.49l.12,0a34,34,0,0,0,7-2.5s0-.32,0-.33c2.82-1.38,5.91-3.11,8.05-6,0,0,0,0,0,0Z" fill="#f7a48b"/>
<path d="M389.61,265.74s12.77-10.43,24.05-4.05c0,0,13.4,7.88,10.43,11.28,0,0-1.07,1.59-8.5-3.93a12.16,12.16,0,0,0-5.46-2.27l-3.67-.54a.15.15,0,0,0-.14.26c1.39,1.46,6.8,7.37,6.06,10.53Z" fill="#f9b499"/>
<path d="M487.93,219.77s-3.62,10.43-.85,17.24c0,0-2.13,3.83-1.92,5.32,0,0-5.11-6-3.19-17.88,0,0,1.28-9.15,4.68-7.45C486.65,217,488.14,216.37,487.93,219.77Z" opacity="0.2"/>
<path d="M449.84,209s7.05,13.72,13.64,5.09l8.33-16.42S473,194,470,191.87l-3.08-4.41S461.17,208.29,449.84,209Z" fill="#f7a48b"/>
<path d="M442,207.82l-.23,13.88L454.46,215s-3.7-3.93-4.62-6C449.84,209,445,209.68,442,207.82Z" fill="#0071f2" data-primary="true"/>
<path d="M442,207.82l-.23,13.88L454.46,215s-3.7-3.93-4.62-6C449.84,209,445,209.68,442,207.82Z" fill="#fff" opacity="0.3"/>
<path d="M463.48,214.07l12.72,5.78-.4-26s-1.68-3.1-5.84-1.94a5.65,5.65,0,0,1,1.85,5.78Z" fill="#0071f2" data-primary="true"/>
<path d="M463.48,214.07l12.72,5.78-.4-26s-1.68-3.1-5.84-1.94a5.65,5.65,0,0,1,1.85,5.78Z" fill="#fff" opacity="0.3"/>
<path d="M468.56,175.72c0,18.57-9.34,33.63-20.86,33.63s-20.85-15.06-20.85-33.63c0-1.52.06-3,.19-4.49,1.36-16.45,10.09-29.13,20.66-29.13,9.14,0,16.92,9.48,19.72,22.68A52,52,0,0,1,468.56,175.72Z" fill="#f9b499"/>
<ellipse cx="471.08" cy="179.79" rx="8.86" ry="6.16" transform="translate(55.22 464.93) rotate(-55.33)" fill="#f9b499"/>
<path d="M467.42,164.78l-2.91,1.58c-3.83-3.62-8.51,1.7-8.51,1.7-7,4.47-9.57-.21-9.57-.21-6.81,7.66-14.69,4-14.69,4-2.45-1.37-4-1-4.7-.66,1.36-16.45,10.09-29.13,20.66-29.13C456.84,142.1,464.62,151.58,467.42,164.78Z" fill="#f7a48b"/>
<path d="M482.14,159.44v0a39.36,39.36,0,0,1-4.9,14.15,5.84,5.84,0,0,0-3.37-1.71,5.72,5.72,0,0,0-3.26.52,12.82,12.82,0,0,0-4.6,3.87s-3-1-1.71-5.89c0,0,2.56-10.21-3.83-12.13a7.78,7.78,0,0,0-6.6,3.19,6.71,6.71,0,0,1-9.36-.21s-3.4,10.22-16.81,2.34c0,0-9.79,6.17-13.19-.42a14.42,14.42,0,0,1-.78-3.73c-.21-2.76.43-6.31,4.51-7.8a6.27,6.27,0,0,1,2.32-.32,10.71,10.71,0,0,0,8.42-3.48s18.94-20.42,28.94-13l7.95,7.79a5.86,5.86,0,0,0,2.87,1.57,5.49,5.49,0,0,0,2,.11,14.1,14.1,0,0,1,6,.4h0c2.76.89,5.27,3,5.87,7.8A38.08,38.08,0,0,1,482.14,159.44Z" fill="#2f2e41" data-secondary="true"/>
<path d="M470.61,172.42a12.82,12.82,0,0,0-4.6,3.87s-3-1-1.71-5.89c0,0,2.56-10.21-3.83-12.13a7.78,7.78,0,0,0-6.6,3.19,6.71,6.71,0,0,1-9.36-.21s-3.4,10.22-16.81,2.34c0,0-9.79,6.17-13.19-.42a14.42,14.42,0,0,1-.78-3.73c1.09,1.1,5.25,4.59,11.42,1,0,0,4.46-5.75,8.72-.64,0,0,2.77,2.56,4.68-1.27,0,0,1.92-5.33,7.88-2.13,0,0,3.19,1.91,7-1.28,0,0,6.6-9.79,15.32,2.55C468.77,157.63,472.39,162.34,470.61,172.42Z" opacity="0.2"/>
<path d="M476.72,144.73c-1.66.6-3.8,4.08-4.9,6a1.68,1.68,0,0,1-3-.07c-1.09-2.21-.08-6.26-.08-6.26l0-.22a5.49,5.49,0,0,0,2,.11A14.1,14.1,0,0,1,476.72,144.73Z" opacity="0.2"/>
<path d="M482.14,159.46a39.36,39.36,0,0,1-4.9,14.15,5.84,5.84,0,0,0-3.37-1.71C474.94,170.81,480.09,165.36,482.14,159.46Z" opacity="0.2"/>
<path d="M523.36,283.14a28.4,28.4,0,0,1-17.17,11.34c-24.72,9.41-21.13-27.73-19.2-40.59.4-2.63.72-4.24.72-4.24,6.15-.62,18.75-12,18.75-12,3.6,20.38,9.66,33.49,13.46,40.16A44.76,44.76,0,0,0,523.36,283.14Z" fill="#f9b499"/>
<path d="M519.92,277.82l-1,2.86c-5.78-5.36-14.57-37.93-14.57-37.93-6.27,6.48-16.8,10.92-17.33,11.14.4-2.63.72-4.24.72-4.24,6.15-.62,18.75-12,18.75-12C510.06,258,516.12,271.15,519.92,277.82Z" fill="#f7a48b"/>
<path d="M555.05,294.72c.06,4.47-1.83,10.47-9.57,16.69,0,0-14.75,15.06-13.52-.31,0,0-19.05,13.22-12.9,3.08l5-11.69s1.33-1.28-.93-6.78c0,0-1-5.22-1.77-10.12l2-2.45a110.75,110.75,0,0,1-16.9-45.48s-10.76,10.14-18.75,12a10.92,10.92,0,0,1-2.16-4.43c-1-4.12.22-10.52,12.3-16.47,0,0,25.81-10.75,37.18,9.22,0,0,14.14-2.15,14.75,15.67,0,0-1.53,26.43,3.08,33.49A14.53,14.53,0,0,1,555.05,294.72Z" fill="#2f2e41" data-secondary="true"/>
<path d="M555.05,294.72c.06,4.47-1.83,10.47-9.57,16.69,0,0-14.75,15.06-13.52-.31,0,0-19.05,13.22-12.9,3.08l5-11.69s1.33-1.28-.93-6.78c0,0-1-5.22-1.77-10.12l2-2.45a110.75,110.75,0,0,1-16.9-45.48s-10.76,10.14-18.75,12a10.92,10.92,0,0,1-2.16-4.43c1.63-.78,9.71-4.78,13.84-10,0,0,8.6-10.14,12.6.61,0,0,3.69,21.51,11.67,29.81,0,0,12.6,8.6,5.84,27L524,313s11.37-11.37,12-8c0,0-4,12.9,9.21,2.76C545.17,307.72,552.1,300.21,555.05,294.72Z" opacity="0.2"/>
<ellipse cx="523.9" cy="279.86" rx="7.07" ry="5.68" transform="translate(-44.44 452.42) rotate(-45)" fill="#f9b499"/>
<polygon points="320.02 324.19 454.04 408.09 454.74 305.05 321.41 232.99 320.02 324.19" fill="#0071f2" data-primary="true"/>
<polygon points="320.02 324.19 454.04 408.09 454.74 305.05 321.41 232.99 320.02 324.19" fill="#fff" opacity="0.3"/>
<polygon points="454.04 408.09 458.91 408.44 458.91 301.91 325.94 231.6 321.41 232.99 454.74 305.05 454.04 408.09" fill="#0071f2" data-primary="true"/>
<polygon points="454.04 408.09 458.91 408.44 458.91 301.91 325.94 231.6 321.41 232.99 454.74 305.05 454.04 408.09" fill="#fff" opacity="0.4"/>
<polygon points="352.32 390.58 400.33 416.08 413.08 400.62 362.63 376.21 352.32 390.58" fill="#0071f2" data-primary="true"/>
<polygon points="352.32 390.58 400.33 416.08 413.08 400.62 362.63 376.21 352.32 390.58" fill="#fff" opacity="0.3"/>
<polygon points="352.32 390.58 352.6 394.11 401.96 419.88 414.17 403.87 413.08 400.62 400.33 416.08 352.32 390.58" fill="#0071f2" data-primary="true"/>
<polygon points="352.32 390.58 352.6 394.11 401.96 419.88 414.17 403.87 413.08 400.62 400.33 416.08 352.32 390.58" fill="#fff" opacity="0.4"/>
<path d="M401.69,341.76l1.08,6.51s-16.81,30.11-.54,50.18l-3.53,2.17S381.35,373.22,401.69,341.76Z" fill="#0071f2" data-primary="true"/>
<path d="M401.69,341.76l1.08,6.51s-16.81,30.11-.54,50.18l-3.53,2.17S381.35,373.22,401.69,341.76Z" fill="#fff" opacity="0.4"/>
<path d="M366.43,322.5l35.26,19.26s-19.8,29.29-3,58.86c0,0-22.3,0-38.74-13a6.1,6.1,0,0,1-2-3C355.47,376.9,347.35,345.82,366.43,322.5Z" fill="#0071f2" data-primary="true"/>
<path d="M366.43,322.5l35.26,19.26s-19.8,29.29-3,58.86c0,0-22.3,0-38.74-13a6.1,6.1,0,0,1-2-3C355.47,376.9,347.35,345.82,366.43,322.5Z" fill="#fff" opacity="0.3"/>
<polygon points="449.77 489.53 450.69 648.85 458.54 648.85 463.17 486.27 453.4 491.65 449.77 489.53" fill="#bcbec0"/>
<polygon points="560.9 590.71 556.88 434.66 568.38 428.32 568.38 590.71 560.9 590.71" fill="#bcbec0"/>
<g id="a46a253d-2a5d-4a78-9234-617a83f021c3" data-name="freepik--Plant--inject-56">
<g id="e210bd5c-9032-4afa-befd-a14819bedf5c" data-name="freepik--Pot--inject-56">
<path d="M593.24,599.75c9.13-9.3,14.49-47.22,5.59-54.6H553.49c-8.9,7.38-3.55,45.27,5.58,54.6l.25.26.31.31c.26.24.54.48.83.72a1.18,1.18,0,0,0,.22.17c.22.18.43.36.68.53a13.24,13.24,0,0,0,1.19.75c7.5,4.34,19.67,4.34,27.18,0h0a12.68,12.68,0,0,0,1.19-.77c.23-.15.44-.32.64-.47l.27-.22c.28-.23.55-.46.8-.7L593,600Z" fill="#0071f2" data-primary="true"/>
<g opacity="0.5">
<path d="M593.24,599.75c9.13-9.3,14.49-47.22,5.59-54.6H553.49c-8.9,7.38-3.55,45.27,5.58,54.6l.25.26.31.31c.26.24.54.48.83.72a1.18,1.18,0,0,0,.22.17c.22.18.43.36.68.53a13.24,13.24,0,0,0,1.19.75c7.5,4.34,19.67,4.34,27.18,0h0a12.68,12.68,0,0,0,1.19-.77c.23-.15.44-.32.64-.47l.27-.22c.28-.23.55-.46.8-.7L593,600Z" fill="#fff"/>
</g>
<path d="M557.47,542.17c-10.35,6-10.35,15.65,0,21.62s27.08,6,37.42,0,10.34-15.65,0-21.62S567.8,536.2,557.47,542.17Z" fill="#0071f2" data-primary="true"/>
<g opacity="0.7">
<path d="M557.47,542.17c-10.35,6-10.35,15.65,0,21.62s27.08,6,37.42,0,10.34-15.65,0-21.62S567.8,536.2,557.47,542.17Z" fill="#fff"/>
</g>
<path d="M562.45,545.05c-7.59,4.37-7.59,11.52,0,15.87s19.9,4.38,27.49,0,7.59-11.52,0-15.87S570,540.66,562.45,545.05Z" fill="#0071f2" data-primary="true"/>
<g opacity="0.2">
<path d="M562.45,545.05c-7.59,4.37-7.59,11.52,0,15.87s19.9,4.38,27.49,0,7.59-11.52,0-15.87S570,540.66,562.45,545.05Z" fill="#fff"/>
</g>
<path d="M589.93,552.52c-7.59-4.38-19.91-4.38-27.5,0a12.54,12.54,0,0,0-4.54,4.17,12.73,12.73,0,0,0,4.54,4.18c7.59,4.37,19.91,4.37,27.5,0a12.92,12.92,0,0,0,4.51-4.12A12.53,12.53,0,0,0,589.93,552.52Z" fill="#f5f5f5"/>
<path d="M578.79,544.66a8.44,8.44,0,0,1-2-2.37,5.17,5.17,0,0,1,.52-4.4c.71-1.34,1.71-2.56,2.36-3.91a8.85,8.85,0,0,0-4.21-11.8l-.09,0c-1.1-.52-2.31-.79-3.39-1.37a5.45,5.45,0,0,1-3-6.4,7.21,7.21,0,0,0-3-7.76c-2.85-1.73-6.65-1.19-9.5-2.89-2.42-1.44-3.6-4-5.74-5.69-4.36-3.43-12.6-1.95-12.42,4.56.09,3,2.56,5.48,2.76,8.46.13,2-.77,3.84-1.38,5.77-.86,2.65-1.1,5.84.69,8a18.86,18.86,0,0,0,3.52,2.69c2.7,2,3,5.12,2.44,8.21-.39,2.27-1,4.64-.21,6.8,1.28,3.69,4.37,4.45,7.57,5.54a13.59,13.59,0,0,1,6.21,4.07,9.55,9.55,0,0,1,2.25,7l13.43-.14a2.31,2.31,0,0,1-.11-2.91,6.35,6.35,0,0,1,2.56-1.87,7.43,7.43,0,0,0,2.56-1.78,4.54,4.54,0,0,0,.6-4.13A8.81,8.81,0,0,0,578.79,544.66Z" fill="#0071f2" data-primary="true"/>
<path d="M578.79,544.66a8.44,8.44,0,0,1-2-2.37,5.17,5.17,0,0,1,.52-4.4c.71-1.34,1.71-2.56,2.36-3.91a8.85,8.85,0,0,0-4.21-11.8l-.09,0c-1.1-.52-2.31-.79-3.39-1.37a5.45,5.45,0,0,1-3-6.4,7.21,7.21,0,0,0-3-7.76c-2.85-1.73-6.65-1.19-9.5-2.89-2.42-1.44-3.6-4-5.74-5.69-4.36-3.43-12.6-1.95-12.42,4.56.09,3,2.56,5.48,2.76,8.46.13,2-.77,3.84-1.38,5.77-.86,2.65-1.1,5.84.69,8a18.86,18.86,0,0,0,3.52,2.69c2.7,2,3,5.12,2.44,8.21-.39,2.27-1,4.64-.21,6.8,1.28,3.69,4.37,4.45,7.57,5.54a13.59,13.59,0,0,1,6.21,4.07,9.55,9.55,0,0,1,2.25,7l13.43-.14a2.31,2.31,0,0,1-.11-2.91,6.35,6.35,0,0,1,2.56-1.87,7.43,7.43,0,0,0,2.56-1.78,4.54,4.54,0,0,0,.6-4.13A8.81,8.81,0,0,0,578.79,544.66Z" opacity="0.2" style="isolation:isolate"/>
<path d="M568.47,555.94a.63.63,0,0,1-.64-.61h0c-.76-29-21.91-53.43-22.11-53.68a.65.65,0,0,1,0-.91.67.67,0,0,1,.91,0c.21.25,21.65,25.08,22.43,54.49a.64.64,0,0,1-.62.66h0Z" fill="#fff"/>
<path d="M570.83,559.32a31.9,31.9,0,0,1-4.62-6.67,7.74,7.74,0,0,1,0-6.68c.88-1.6,2.48-2.74,3.2-4.42,1-2.43-.1-5.19-1.46-7.45s-3-4.53-3.09-7.15a7.89,7.89,0,0,1,3-6.13c2.81-2.32,9.56-1.77,11.11-5.12a7.84,7.84,0,0,0,.34-4.34,48.25,48.25,0,0,1-.84-8.47,9.34,9.34,0,0,1,3.62-7.38c4.3-2.86,10.11,0,14.14-3.22a36.92,36.92,0,0,1,7.79-5.12,13.37,13.37,0,0,1,9.12-.94,8.23,8.23,0,0,1,5.94,6.56,12.44,12.44,0,0,1-.78,5.12c-.66,2.16-1.42,4.49-.7,6.64a23.88,23.88,0,0,0,2.34,3.92,9,9,0,0,1-.14,8.85c-2.42,4-6.71,3.95-10.69,5.12-2.1.66-4.2,2.38-4,4.57.14,1.83,1.77,3.13,2.65,4.74a6.31,6.31,0,0,1-1.74,7.87c-3.11,2.29-8.06,1.47-10.52,4.47-2.92,3.56,2.06,6.27-.17,9.74-1,1.58-3.07,2-4.89,2.45s-3.84,1.28-4.39,3.08Z" fill="#0071f2" data-primary="true"/>
<path d="M577.54,559.42h-.16a.64.64,0,0,1-.59-.68c2.1-30,24.05-60.62,30.45-65.76a.66.66,0,0,1,.91.09.65.65,0,0,1-.1.91c-6.94,5.59-28,36.56-30,64.85A.69.69,0,0,1,577.54,559.42Z" fill="#fff"/>
</g>
</g>
<rect x="608" y="124.68" width="87.98" height="3.99" fill="#fff"/>
<rect x="625.37" y="133.22" width="70.61" height="3.99" fill="#fff"/>
<rect x="608" y="144.9" width="59.79" height="3.99" fill="#fff"/>
<rect x="608" y="165.11" width="82.85" height="3.99" fill="#fff"/>
<rect x="605.44" y="172.8" width="87.98" height="3.99" fill="#fff"/>
<rect x="605.44" y="183.05" width="71.75" height="3.99" fill="#fff"/>
<path d="M582.78,126.67a32.11,32.11,0,0,0-16.2-4.37,32.51,32.51,0,0,0-25.87,12.91l4.55,4.63a26.21,26.21,0,0,1,21.32-11A25.84,25.84,0,0,1,580,132.54Zm-13.42,56.08a25.62,25.62,0,0,1-2.78.15,26.62,26.62,0,0,1-25.86-21.31l-6.28,1a33,33,0,0,0,32.14,26.79c.88,0,1.75,0,2.61-.11ZM593,155.85a27.54,27.54,0,0,1-1.59,9.26l5.64,3.12a34.09,34.09,0,0,0,2.3-12.38Z" fill="#fff"/>
<rect x="576.43" y="283.33" width="143.73" height="78.93" rx="12.12" fill="#fff" opacity="0.47"/>
<rect x="593.38" y="306.87" width="7.34" height="44.94" fill="#0071f2" data-primary="true"/>
<rect x="607" y="320.64" width="7.34" height="31.17" fill="#2f2e41" data-secondary="true"/>
<rect x="628.83" y="333.49" width="7.34" height="18.32" fill="#0071f2" data-primary="true"/>
<rect x="643.48" y="312.42" width="7.34" height="39.39" fill="#2f2e41" data-secondary="true"/>
<rect x="660.18" y="300.86" width="7.34" height="50.95" fill="#0071f2" data-primary="true"/>
<rect x="675.59" y="319.69" width="7.34" height="32.12" fill="#2f2e41" data-secondary="true"/>
<rect x="694.34" y="300.39" width="7.34" height="51.42" fill="#0071f2" data-primary="true"/>
<rect x="265.6" y="143.88" width="107.8" height="59.45" rx="11.19" fill="#fff" opacity="0.47"/>
<rect x="319.5" y="152.32" width="44.74" height="2.93" fill="#fff"/>
<rect x="318.64" y="171.25" width="44.74" height="2.93" fill="#fff"/>
<rect x="318.64" y="179.24" width="44.74" height="2.93" fill="#fff"/>
<rect x="318.64" y="165.81" width="44.74" height="2.93" fill="#fff"/>
<rect x="331.88" y="159.03" width="32.36" height="3" fill="#fff"/>
<ellipse cx="292.62" cy="173.39" rx="18.82" ry="18.14" fill="#fff"/>
<path d="M278.73,161.16l13.89,12.23-.89-18.14S285.43,154.79,278.73,161.16Z" fill="#0071f2" data-primary="true"/>
</svg>