 <!DOCTYPE svg PUBLIC "-//W3C//DTD SVG 1.1//EN" "http://www.w3.org/Graphics/SVG/1.1/DTD/svg11.dtd">
<svg id="ffafe6bb-c421-4466-bd1a-c2235388ac50" data-name="Layer 1" xmlns="http://www.w3.org/2000/svg" width="865.76" height="682.89" viewBox="0 0 865.76 682.89">
<defs>
<style xmlns="http://www.w3.org/1999/xhtml">*, ::after, ::before { box-sizing: border-box; }
img, svg { vertical-align: middle; }
</style>
<style xmlns="http://www.w3.org/1999/xhtml">*, body, html { -webkit-font-smoothing: antialiased; }
img, svg { max-width: 100%; }
</style>
</defs>
<g id="abbdac19-8e71-4332-a478-65ba61e4c4d6" data-name="freepik--background-simple--inject-1">
<path d="M853,509.14c18.29-137.44-70.45-320.08-162.3-395.5C524.79-22.53,386.91,3.8,279.66,52.55S157.21,264.18,83.15,337.85-33,510.59,79.34,609.25,282.4,657.76,399.76,651.5s273.2,43,357.45.17C816.05,621.78,845,570,853,509.14Z" fill="#0071f2" data-primary="true"/>
<path d="M853,509.14c18.29-137.44-70.45-320.08-162.3-395.5C524.79-22.53,386.91,3.8,279.66,52.55S157.21,264.18,83.15,337.85-33,510.59,79.34,609.25,282.4,657.76,399.76,651.5s273.2,43,357.45.17C816.05,621.78,845,570,853,509.14Z" fill="#fff" opacity="0.8" style="isolation:isolate"/>
</g>
<g id="a5218fea-76b6-453c-8ff8-41fa9c984775" data-name="freepik--Floor--inject-1">
<path d="M20.76,532.35C31.23,557.69,50,583.49,79.34,609.21c112.34,98.63,203.06,48.51,320.42,42.25s273.2,43,357.45.17c51.18-26,79.77-68.67,91.66-119.32Z" fill="#0071f2" data-primary="true"/>
<path d="M20.76,532.35C31.23,557.69,50,583.49,79.34,609.21c112.34,98.63,203.06,48.51,320.42,42.25s273.2,43,357.45.17c51.18-26,79.77-68.67,91.66-119.32Z" fill="#fff" opacity="0.5" style="isolation:isolate"/>
</g>
<g id="b9633370-ccf9-4a73-83c6-a764b47dba25" data-name="freepik--background-complete--inject-1064">
<rect x="296.18" y="13.92" width="223.4" height="342.54" fill="#dbdbdb"/>
<rect x="308.36" y="27.64" width="94.33" height="152.36" fill="#fff"/>
<rect x="413.07" y="27.64" width="94.33" height="152.36" fill="#fff"/>
<rect x="308.36" y="190.38" width="94.33" height="152.36" fill="#fff"/>
<rect x="413.07" y="190.38" width="94.33" height="152.36" fill="#fff"/>
<rect x="296.18" y="13.92" width="52.92" height="490.06" fill="#ebebeb"/>
<polygon points="339.06 37.21 339.48 90.2 339.61 143.18 339.9 249.16 339.63 355.13 339.48 408.12 339.06 461.1 338.66 408.12 338.51 355.13 338.22 249.16 338.51 143.18 338.66 90.2 339.06 37.21" fill="#fff"/>
<polygon points="314.77 49.51 315.18 96.81 315.41 144.12 315.62 238.74 315.41 333.38 315.18 380.69 314.77 428 314.36 380.69 314.12 333.38 313.94 238.74 314.12 144.12 314.36 96.81 314.77 49.51" fill="#fff"/>
<polygon points="326.92 60.67 327.32 116.08 327.47 171.47 327.76 282.27 327.47 393.07 327.32 448.47 326.92 503.86 326.51 448.47 326.36 393.07 326.08 282.27 326.36 171.47 326.51 116.08 326.92 60.67" fill="#fff"/>
<polygon points="305.74 40.02 306.14 97.99 306.29 155.97 306.58 271.93 306.29 387.9 306.14 445.89 305.74 503.86 305.32 445.89 305.17 387.9 304.9 271.93 305.17 155.97 305.32 97.99 305.74 40.02" fill="#fff"/>
<rect x="466.66" y="13.92" width="52.92" height="490.06" fill="#ebebeb"/>
<polygon points="476.69 37.21 477.11 90.2 477.26 143.18 477.53 249.16 477.26 355.13 477.11 408.12 476.69 461.1 476.29 408.12 476.14 355.13 475.87 249.16 476.14 143.18 476.29 90.2 476.69 37.21" fill="#fff"/>
<polygon points="500.99 49.51 501.41 96.81 501.65 144.12 501.83 238.74 501.65 333.38 501.41 380.69 500.99 428 500.59 380.69 500.35 333.38 500.15 238.74 500.35 144.12 500.59 96.81 500.99 49.51" fill="#fff"/>
<polygon points="488.85 60.67 489.25 116.08 489.4 171.47 489.69 282.27 489.4 393.07 489.25 448.47 488.85 503.86 488.43 448.47 488.3 393.07 488.01 282.27 488.3 171.47 488.45 116.08 488.85 60.67" fill="#fff"/>
<polygon points="510.03 40.02 510.45 97.99 510.58 155.97 510.87 271.93 510.58 387.9 510.45 445.89 510.03 503.86 509.62 445.89 509.47 387.9 509.19 271.93 509.47 155.97 509.62 97.99 510.03 40.02" fill="#fff"/>
<rect x="719.92" y="503.34" width="44.47" height="18.79" fill="#ebebeb"/>
<rect x="744.75" y="527.04" width="44.47" height="18.79" fill="#ebebeb"/>
<rect x="241.94" y="364.17" width="44.47" height="18.79" fill="#ebebeb"/>
<rect x="266.73" y="387.86" width="44.47" height="18.79" fill="#ebebeb"/>
<rect x="576.75" y="204.38" width="44.47" height="18.79" fill="#ebebeb"/>
<rect x="601.57" y="228.08" width="44.47" height="18.79" fill="#ebebeb"/>
<rect x="626.29" y="204.38" width="44.47" height="18.79" fill="#ebebeb"/>
<rect x="105.15" y="527.04" width="44.47" height="18.79" fill="#ebebeb"/>
<rect x="129.97" y="32.37" width="44.47" height="18.79" fill="#ebebeb"/>
<rect x="105.15" y="56.07" width="44.47" height="18.79" fill="#ebebeb"/>
<rect x="719.92" y="32.37" width="44.47" height="18.79" fill="#ebebeb"/>
<polygon points="691.12 487.97 745.28 487.97 776.29 333.41 726.69 310.62 691.12 487.97" fill="#dbdbdb"/>
<polygon points="536.08 487.97 691.12 487.97 726.69 310.62 571.65 310.62 536.08 487.97" fill="#ebebeb"/>
<rect x="718.93" y="405.04" width="83.01" height="170.35" fill="#dbdbdb"/>
<polygon points="496.24 575.39 518.91 575.39 552.7 405.06 496.24 405.06 496.24 575.39" fill="#dbdbdb"/>
<rect x="673.3" y="405.04" width="45.61" height="170.35" fill="#ebebeb"/>
<rect x="450.63" y="405.04" width="45.61" height="170.35" fill="#ebebeb"/>
<rect x="496.22" y="487.99" width="177.08" height="87.41" fill="#ebebeb"/>
<rect x="496.22" y="450.2" width="177.08" height="38.14" fill="#ebebeb"/>
<path d="M707.75,405.06l-17.22-.34-17.21-.21h-.52V405L672.6,425v19.93c0,13.29-.1,26.57,0,39.86s0,26.58.22,39.87.3,26.58.58,39.87q.4-19.92.57-39.87c.17-13.29.19-26.57.24-39.87s0-26.57,0-39.86L674.13,425l-.22-19.92-.52.52,17.21-.22Z" fill="#dbdbdb"/>
<path d="M496.24,405.06c-.37,13.33-.52,26.67-.67,40l-.2,40,.2,40,.23,20,.44,20,.42-20,.23-20,.21-40L496.89,445C496.76,431.73,496.59,418.39,496.24,405.06Z" fill="#dbdbdb"/>
<path d="M496.24,488c14.74.37,29.51.52,44.27.68l44.27.2,44.27-.2,22.13-.24,22.14-.44-22.14-.42-22.13-.23-44.27-.2-44.27.2C525.75,487.45,511,487.62,496.24,488Z" fill="#dbdbdb"/>
<path d="M496.24,450.19c14.74.35,29.51.52,44.27.67l44.27.18,44.27-.18,22.13-.25,22.14-.42-22.14-.42-22.13-.24-44.27-.2-44.27.2C525.75,449.67,511,449.83,496.24,450.19Z" fill="#dbdbdb"/>
<polygon points="770.39 575.39 771.52 589.19 774.14 621.07 786.16 621.07 788.78 589.19 789.91 575.39 770.39 575.39" fill="#c7c7c7"/>
<polygon points="789.91 575.39 770.39 575.39 771.52 589.19 788.78 589.19 789.91 575.39" fill="#a6a6a6"/>
<polygon points="686.37 575.39 687.49 589.19 690.11 621.07 702.14 621.07 704.76 589.19 705.88 575.39 686.37 575.39" fill="#c7c7c7"/>
<polygon points="705.88 575.39 686.37 575.39 687.49 589.19 704.76 589.19 705.88 575.39" fill="#a6a6a6"/>
<polygon points="546.99 575.39 548.12 589.19 550.74 621.07 562.75 621.07 565.38 589.19 566.49 575.39 546.99 575.39" fill="#c7c7c7"/>
<polygon points="566.49 575.39 546.99 575.39 548.12 589.19 565.38 589.19 566.49 575.39" fill="#a6a6a6"/>
<polygon points="462.94 575.39 464.06 589.19 466.68 621.07 478.7 621.07 481.32 589.19 482.45 575.39 462.94 575.39" fill="#c7c7c7"/>
<polygon points="462.94 575.39 464.06 589.19 481.32 589.19 482.45 575.39 462.94 575.39" fill="#a6a6a6"/>
<rect x="122.53" y="29.4" width="82.48" height="82.48" fill="#fff"/>
<path d="M118.23,25.17v91.06h91.06V25.17ZM205,111.93H122.53V29.4H205Z" fill="#dbdbdb"/>
<rect x="134.77" y="67.41" width="64.29" height="28.52" fill="#ebebeb"/>
<rect x="147.3" y="54.17" width="32.93" height="32.93" fill="#c7c7c7"/>
<rect x="209.29" y="25.12" width="3.51" height="91.06" fill="#c7c7c7"/>
<rect x="122.53" y="146.51" width="82.48" height="82.48" fill="#fff"/>
<rect x="136.7" y="159.71" width="21.53" height="62.21" fill="#c7c7c7"/>
<path d="M118.23,142.23v91.06h91.06V142.23ZM205,229H122.53V146.51H205Z" fill="#dbdbdb"/>
<rect x="147.3" y="171.28" width="32.93" height="32.93" fill="#ebebeb"/>
<rect x="209.29" y="142.23" width="3.51" height="91.06" fill="#c7c7c7"/>
<rect x="122.53" y="263.63" width="82.48" height="82.48" fill="#fff"/>
<rect x="131.67" y="274.87" width="45.26" height="27.06" fill="#ebebeb"/>
<path d="M118.23,259.33v91.06h91.06V259.33ZM205,346.11H122.53V263.65H205Z" fill="#dbdbdb"/>
<rect x="147.3" y="288.41" width="32.93" height="32.93" fill="#c7c7c7"/>
<rect x="209.29" y="259.33" width="3.51" height="91.06" fill="#c7c7c7"/>
</g>
<path d="M280.75,644.36l.64-5.33s.88-.38,2.84,6.57Z" fill="#2f2e41" data-secondary="true"/>
<path d="M280.75,644.36l.64-5.33s.88-.38,2.84,6.57Z" opacity="0.2"/>
<path d="M276.4,619.07v0a13,13,0,0,0,1.22,5.81s7.84,19.13,8.77,18.82a39.89,39.89,0,0,0,14.44,21c12.54,6.59,37.95-2.51,37.95-2.51,6-2.3-6.69-16.16-13.92-23.45a30.11,30.11,0,0,1-6.93-10.94l-5.5-15.16c-25,6.92-33.56-2.53-33.56-2.53A18.32,18.32,0,0,0,276.4,619.07Z" fill="#0071f2" data-primary="true"/>
<path d="M274.48,634l6.27,10.36.64-5.33c1.24,0,4.38,11.91,4.38,11.91,1.89,9.72,16,16,16,16,7.22,4.4,35.14.33,35.14.33,8.46-1.88,1.88-5,1.88-5s-25.41,9.1-37.95,2.51a39.89,39.89,0,0,1-14.44-21c-.93.31-8.77-18.82-8.77-18.82a13,13,0,0,1-1.22-5.81C273.84,622.05,274.48,634,274.48,634Z" fill="#2f2e41" data-secondary="true"/>
<path d="M418,369.25l-.45-6.93s-10,1.95-14.19.64l-.63,6.88A136.39,136.39,0,0,0,418,369.25Z" fill="#2f2e41" data-secondary="true"/>
<path d="M418,369.25l-.45-6.93s-10,1.95-14.19.64l-.63,6.88A136.39,136.39,0,0,0,418,369.25Z" opacity="0.2"/>
<path d="M403.33,363.24s8.09,1.27,14.82-.68a.47.47,0,0,0,.33-.43c.16-3.59,1.47-34.92,0-39.35,0,0-1.05-56.39,0-72.31,0,0,7-44.38-4.7-39.68L399.15,262l-.78,100Z" fill="#0071f2" data-primary="true"/>
<path d="M403.33,363.24s8.09,1.27,14.82-.68a.47.47,0,0,0,.33-.43c.16-3.59,1.47-34.92,0-39.35,0,0-1.05-56.39,0-72.31,0,0,7-44.38-4.7-39.68L399.15,262l-.78,100Z" opacity="0.2"/>
<path d="M348.25,359.59l-45.42-4.24s-12.14,9.39-11.16,21.53c0,0-2.16,8.81-1.18,12.53,0,0-16.38,194.68-21.6,211.91,0,0,10.57,15.4,28.06,14.35,0,0,15.8-1.43,19.19-4.69l12.53-105.73,5.64-38.78a35,35,0,0,1,1.07-4.85l6.6-22.41,13.71,150.88s24.6,12,44.09-1.47a9.94,9.94,0,0,0,4.27-9.25c-1.77-16.77-6.92-71.19-5.29-124l2-30.93s2.35-48.95,2.61-61.22Z" fill="#2f2e41" data-secondary="true"/>
<path d="M295.11,270l8.21-26.21s-2.61-23.49-14.62-45.16c0,0,22.46-8.09,43.08-8l19,4.05h31.52s4.57-2.88,4.57,6.26l27.67,9.92s9.66,2.61,0,23.23l-11,27.67s-1.3,26.63,1.05,38.12a205.77,205.77,0,0,1-.26,51.16l-.26,12.27s-39.36,8.72-40.41-2c0,0-32.19,8.53-57.75-6.11l3.66-14.36-1.73-4.27L295.75,320A404,404,0,0,0,295.11,270Z" fill="#0071f2" data-primary="true"/>
<rect x="350.01" y="170.13" width="29.56" height="24.47" transform="translate(729.58 364.74) rotate(-180)" fill="#2f2e41" data-secondary="true"/>
<path d="M374.12,202.66s4.73-7.17-2.87-9.37a7.47,7.47,0,0,0-7.48,3.52s-3.41,6,2.8,8.53Z" fill="#0071f2" data-primary="true"/>
<path d="M288.47,198.52s-12,8.62-14.36,20.36c0,0-9.14,41-12.53,50.13,0,0-8.35,19.57-.78,31.32,0,0,18,33.51,24.58,42.94a2.33,2.33,0,0,0,3.45.39,12.15,12.15,0,0,1,5.38-2.61l13.58-4.69S306.22,315,300.48,310L290.3,285.57a1.87,1.87,0,0,1-.05-1.3l4.61-13.59,8.46-26.92S300.47,216.11,288.47,198.52Z" fill="#0071f2" data-primary="true"/>
<path d="M288.47,198.52s-12,8.62-14.36,20.36c0,0-9.14,41-12.53,50.13,0,0-8.35,19.57-.78,31.32,0,0,18,33.51,24.58,42.94a2.33,2.33,0,0,0,3.45.39,12.15,12.15,0,0,1,5.38-2.61l13.46-4.64S306.22,315,300.48,310L290.3,285.57a1.87,1.87,0,0,1-.05-1.3l4.61-13.59,8.46-26.92S300.47,216.11,288.47,198.52Z" fill="#0071f2" data-primary="true"/>
<path d="M288.47,198.52s-12,8.62-14.36,20.36c0,0-9.14,41-12.53,50.13,0,0-8.35,19.57-.78,31.32,0,0,18,33.51,24.58,42.94a2.33,2.33,0,0,0,3.45.39,12.15,12.15,0,0,1,5.38-2.61l13.46-4.64S306.22,315,300.48,310L290.3,285.57a1.87,1.87,0,0,1-.05-1.3l4.61-13.59,8.46-26.92S300.47,216.11,288.47,198.52Z" opacity="0.2"/>
<path d="M370.34,246.81c.55,18,.43,37.37-.69,58-1.49,27.57-2.4,33.7-6.2,56.49" fill="none" stroke="#000" stroke-miterlimit="10" opacity="0.2"/>
<polygon points="309.59 340.87 308.01 336.34 292.62 341.41 295.78 346.01 309.59 340.87" fill="#2f2e41" data-secondary="true"/>
<ellipse cx="364.69" cy="248.45" rx="3.52" ry="2.55" opacity="0.2"/>
<ellipse cx="365.08" cy="280.56" rx="3.52" ry="2.55" opacity="0.2"/>
<path d="M303.09,243.68s3.58,28-6.9,47.76q-.1-6-.45-12.28c-.17-3.13-.39-6.19-.63-9.19Z" fill="#fff" opacity="0.2"/>
<path d="M352,608.33a6.65,6.65,0,0,0,1.55,4.44c4.57,5.5,17.8,4.05,17.8,4.05,8.5-1,16.3,4.26,16.3,4.26a49.29,49.29,0,0,0,22.18,11.09c16.21,3.24,31.49-4.75,36.77-7.95a3.14,3.14,0,0,0,1.46-2,3.08,3.08,0,0,0-.84-2.9c-4.79-4.72-20.15-6.75-20.15-6.75-12-1.18-15.35-6.61-15.35-6.61l-11.57-17.71c-18.16,13.93-44.42,1.83-44.42,1.83C351.87,593.34,352,608.33,352,608.33Z" fill="#0071f2" data-primary="true"/>
<path d="M352.89,624.85l21.73,1.9c3.54,0,2.83-2.6,2.83-2.6,6.14-2.37,17,5.19,17,5.19,21.49,14.16,53.36-2.83,53.36-2.83,3.55-1.66.48-4.26.48-4.26l-.26,0a3.14,3.14,0,0,1-1.46,2c-5.28,3.2-20.56,11.19-36.77,7.95a49.29,49.29,0,0,1-22.18-11.09s-7.8-5.21-16.3-4.26c0,0-13.23,1.45-17.8-4.05C350.59,618.16,352.89,624.85,352.89,624.85Z" fill="#2f2e41" data-secondary="true"/>
<path d="M298.45,345s1.3,9.42,4.38,10.34l3.74.4,3-14.88Z" fill="#f9b499"/>
<path d="M418,369.25s3.68,14.72,1.06,20.4c0,0-1.9,9.77-5.25,12,0,0-8,6.15-12.07,1.48l1.47-33.28S412.54,369.89,418,369.25Z" fill="#f9b499"/>
<path d="M414.05,391.84s-3.64,1.75-2.92-7.14" fill="none" stroke="#f7a48b" stroke-miterlimit="10"/>
<path d="M411.72,397.09s-5.25-.58-.15-7" fill="none" stroke="#f7a48b" stroke-miterlimit="10"/>
<path d="M410.26,396.65s-4.81,5.55-1.6,6.71" fill="none" stroke="#f7a48b" stroke-miterlimit="10"/>
<path d="M415.36,383.24s-1.6,1.46-7,1.89c0,0-.73,1.75.3,5.84,0,0,.29,9.18-2.78,8.89,0,0-1.31,1-2.91-2.91l-.88-.3" fill="none" stroke="#f7a48b" stroke-miterlimit="10"/>
<path d="M406.91,398.26a2.35,2.35,0,0,0-1.17-2.77s-1.46.29-1.31,2.33" fill="none" stroke="#f7a48b" stroke-miterlimit="10"/>
<path d="M378.27,164.06l-25.72-.13s0-5.35-8.61-9.52c0,0-25.19-11.49-16.58-34.2,0,0,5-21.93,37.59-21.15,0,0,33.68-3.65,41.51,32.11L378,134.57s1.56-19.06-13.84-16.19c0,0-8.59,2.4-6,12.09a17.22,17.22,0,0,0,4,7.07c2.3,2.55,6.24,5.25,8.33,7C370.44,144.49,379.44,148.92,378.27,164.06Z" fill="#2f2e41" data-secondary="true"/>
<path d="M368.19,235.86S379.3,225,382,216.35c0,0,3.76-8.94,1.25-17.41,0,0-2.51-3.76-6-4.55,0,0-7.46-1.86-8.63-.93a12.16,12.16,0,0,0-6.35,5.25s-2.08,3.51-3.9,4C358.3,202.7,366.56,228.6,368.19,235.86Z" fill="#fff"/>
<path d="M362.59,215.58c1.36,4.29,5.7,20,5.7,20,2.58-2.08,10.1-12,10.1-12l-.22-10.82a6.72,6.72,0,0,0-.67-2.82l-3.5-7.19s4.69-7.37-2.91-9.57a7.77,7.77,0,0,0-7.43,3.73s-3.42,6,2.8,8.52c-2.4,2-3.55,6.37-4,8.36A3.91,3.91,0,0,0,362.59,215.58Z" fill="#0071f2" data-primary="true"/>
<path d="M379.18,188s2.35-2.74,1.83,1.57c0,0-.39,3.91.52,5.09,0,0,4.57,9.79.65,8.61,0,0-2.22-1.17-5.87-5.87,0,0-2.63-3.69-5.06-4.06a.14.14,0,0,1,0-.27C373,192.32,377.43,190.42,379.18,188Z" fill="#0071f2" data-primary="true"/>
<path d="M379.18,188s2.35-2.74,1.83,1.57c0,0-.39,3.91.52,5.09,0,0,4.57,9.79.65,8.61,0,0-2.22-1.17-5.87-5.87,0,0-2.63-3.69-5.06-4.06a.14.14,0,0,1,0-.27C373,192.32,377.43,190.42,379.18,188Z" opacity="0.2"/>
<path d="M368.6,193a.24.24,0,0,1-.05.46,10.77,10.77,0,0,0-5.55,4.15s-3,5-4.7,5.09c0,0-4.34-13.48-13.66-19.25,0,0,2-4,6.61-.72C351.25,182.73,362.52,190.12,368.6,193Z" fill="#0071f2" data-primary="true"/>
<path d="M368.6,193a.24.24,0,0,1-.05.46,10.77,10.77,0,0,0-5.55,4.15s-3,5-4.7,5.09c0,0-4.34-13.48-13.66-19.25,0,0,2-4,6.61-.72C351.25,182.73,362.52,190.12,368.6,193Z" opacity="0.2"/>
<path d="M381.53,194.61s7.24,11.55-2.74,28.39c0,0-7.22,9.69-10.54,12.62l.81,3.58s13-11.09,16.77-28a40.12,40.12,0,0,0,.81-6C387,200.16,386.92,192,381.53,194.61Z" fill="#0071f2" data-primary="true"/>
<path d="M381.53,194.61s7.24,11.55-2.74,28.39c0,0-7.22,9.69-10.54,12.62l.81,3.58s13-11.09,16.77-28a40.12,40.12,0,0,0,.81-6C387,200.16,386.92,192,381.53,194.61Z" fill="#fff" opacity="0.2"/>
<path d="M370.34,246.81s-19.6-37.23-34.2-47a1.14,1.14,0,0,1,.33-2.06l4.65-1.21a79.54,79.54,0,0,1-8.4-1.18,2.4,2.4,0,0,1-1.85-2.51l.15-2.32a12.11,12.11,0,0,1,6.24-6.83,11.18,11.18,0,0,1,4.67-1,5.73,5.73,0,0,1,3.2,1,24.35,24.35,0,0,1,4.08,3.4c3,3.21,6.8,8.6,9.66,17.34C358.87,204.49,368.43,230.7,370.34,246.81Z" fill="#0071f2" data-primary="true"/>
<path d="M370.34,246.81s-19.59-37.22-34.19-47a1.14,1.14,0,0,1,.33-2.07l4.64-1.21a80,80,0,0,1-8.42-1.18,2.39,2.39,0,0,1-1.83-2.5l.15-2.33a12.11,12.11,0,0,1,6.24-6.83,11.18,11.18,0,0,1,4.67-1,5.73,5.73,0,0,1,3.2,1,24.35,24.35,0,0,1,4.08,3.4c3,3.21,6.8,8.6,9.66,17.34C358.87,204.49,368.43,230.7,370.34,246.81Z" fill="#fff" opacity="0.2"/>
<path d="M197,469.63c-5.78-5.67-13.26-12.47-22.12-10.09-8.33,2.31-11.51,11.4-13,19-1.92,9.76-3.42,19.62-5,29.46s-3.12,19.84-4.48,29.79c-.79,5.61-1.56,11.23-2.38,16.84L148.9,563c-.38,2.76-.84,5.5-1,8.28a.8.8,0,0,0,1.56.17c1.08-4.68,1.56-9.54,2.2-14.3s1.39-9.56,2.09-14.34c1.38-9.48,2.82-19,4.24-28.46s2.91-19,4.43-28.45c1.29-8.05,1.9-18,9-23.39a13.78,13.78,0,0,1,13.32-1.25c4.68,1.8,8.43,5.15,12.1,8.47a.12.12,0,0,0,.15-.09Z" fill="#2f2e41" data-secondary="true"/>
<path d="M189.09,463.83s-11.83-4.25-17.68,4.38,1.16,30.59,55,43a151.72,151.72,0,0,0-13-48.71C201.92,437.31,181.34,446.85,189.09,463.83Z" fill="#0071f2" data-primary="true"/>
<path d="M223.3,507.61a46.9,46.9,0,0,0-2.71-4.38l-2.73-4.15L215.74,496a7,7,0,0,0,.11-.78l.18-1.41c.13-1,.29-2,.43-3s.31-2,.51-3a15.73,15.73,0,0,1,.7-3.11c0-.16-.22-.24-.23,0a12.23,12.23,0,0,1-.49,1.77c-.12.46-.24.91-.35,1.36q-.39,1.56-.75,3.12c-.2,1-.39,1.9-.55,2.85-.08.47-.15.92-.22,1.39-1-1.37-1.93-2.73-2.94-4.05-2.86-3.78-5.88-7.41-9-10.92v-.09c.28-5.66.14-11.26,1.4-16.84,0-.14-.2-.23-.24-.08a57.64,57.64,0,0,0-2,16.11c-1.12-1.25-2.26-2.5-3.41-3.73-2.62-2.82-5.29-5.61-8-8.32a.12.12,0,0,0-.17,0,.11.11,0,0,0,0,.13c4.53,4.88,8.85,10,13.05,15.15a95.47,95.47,0,0,0-9.86.36c-3.64.28-7.28.75-10.91,1.25-.16,0-.11.26,0,.23a102.32,102.32,0,0,1,10.91-1c3.53-.15,7,0,10.53,0q3.41,4.21,6.73,8.5h-2.77c-1.64,0-3.29.14-4.91.28a74.15,74.15,0,0,0-9.95,1.48.13.13,0,0,0-.13.13.12.12,0,0,0,.13.12c3.31-.37,6.63-.68,9.95-.81h7.25A2.94,2.94,0,0,0,212,493c1.45,1.88,2.9,3.76,4.34,5.66,1.15,1.56,2.27,3,3.38,4.55a56,56,0,0,0,3.42,4.68A.17.17,0,0,0,223.3,507.61Z" fill="#2f2e41" data-secondary="true"/>
<path d="M194.24,476.07a35.75,35.75,0,0,0-5.76-.28c-1.91,0-3.85,0-5.76.13a.11.11,0,0,0-.16.07.11.11,0,0,0,.07.16.14.14,0,0,0,.09,0c1.94-.14,3.89-.17,5.84-.14s3.78.2,5.66.15Z" fill="#2f2e41" data-secondary="true"/>
<path d="M211.15,480.41c.22-1.84.46-3.68.85-5.49a.12.12,0,0,0-.08-.16.13.13,0,0,0-.16.07.14.14,0,0,0,0,.09c-.28,1.81-.62,3.61-.89,5.42-.14.91-.26,1.83-.37,2.73a11.7,11.7,0,0,0-.22,2.57.16.16,0,0,0,.16.16.16.16,0,0,0,.15-.16,14.53,14.53,0,0,0,.28-2.55C211,482.15,211.05,481.28,211.15,480.41Z" fill="#2f2e41" data-secondary="true"/>
<path d="M207.62,460c-.47,1.77-.94,3.6-1.28,5.42-.16.92-.3,1.86-.42,2.78a10.41,10.41,0,0,0-.19,2.73c0,.08.12.08.14,0a14.49,14.49,0,0,0,.42-2.61c.12-.89.27-1.79.42-2.68.33-1.87.66-3.74,1.14-5.58C207.88,460,207.71,459.87,207.62,460Z" fill="#2f2e41" data-secondary="true"/>
<path d="M137.45,569.31c-.29-3.4-.62-6.78-1-10.18Q135.39,549.06,134,539c-.9-6.67-1.76-13.35-2.82-20a49.64,49.64,0,0,0-2.06-9.09,8.65,8.65,0,0,0-5-5.69c-6.33-2.2-10.61,4.38-13.17,9,0,.14.12.25.22.12,1.56-2.21,5.77-8.39,10.57-8.11,3.24.21,5.83,2.48,7.37,10.56,3.89,20.1,7.36,60.9,7.8,63.57.2,1.42,1.21,1.35,1.21-.16C138.12,576,137.73,572.63,137.45,569.31Z" fill="#2f2e41" data-secondary="true"/>
<path d="M112.6,510.82s5.54-19.56-6.7-9.79c-20.33,16.3-21.07,51.72-21.07,51.72s36.25-21.06,40.76-34.94C132.31,497.12,112.6,510.82,112.6,510.82Z" fill="#0071f2" data-primary="true"/>
<path d="M119.52,520.43c-2.85.58-5.73,1-8.6,1.36l-4.07.57c-.92.13-1.86.22-2.78.33,2.7-3.71,5.43-7.42,8-11.21a.17.17,0,0,0,0-.22.16.16,0,0,0-.22,0,82,82,0,0,0-6,7l-1.56-4.53c-.61-1.75-1.28-3.5-1.72-5.31,0-.14-.28-.07-.23.08.5,1.8.84,3.62,1.33,5.41s1,3.46,1.55,5.15q-2,2.6-3.83,5.27c-.62-1.76-1.4-3.48-2-5.27a.13.13,0,0,0-.17-.06.13.13,0,0,0-.06.14c.65,2,1,4,1.56,6-.83,1.22-1.66,2.43-2.45,3.66-1.47,2.26-2.86,4.57-4.2,6.89a.54.54,0,0,0-.32.55c-2.28,4-4.46,8-6.61,12,0,.14.14.25.21.11,2.16-4,4.54-7.91,7-11.73h0a5.85,5.85,0,0,1,1.18-.22l1.26-.28c.94-.2,1.86-.43,2.79-.67,1.84-.47,3.67-.89,5.52-1.21.16,0,.1-.27,0-.24-2.2.42-4.39.67-6.61.92l-3.07.42H95.3c1.3-2,2.62-3.94,4-5.89s2.68-3.8,4-5.68c1.27-.18,2.51-.51,3.75-.74l4.21-.83c2.8-.55,5.59-1.17,8.41-1.64C119.74,520.63,119.68,520.4,119.52,520.43Z" fill="#2f2e41" data-secondary="true"/>
<path d="M97.74,522.35c-.17-.52-.32-1-.5-1.56a31,31,0,0,1-.82-3.29c0-.16-.27-.08-.24.08.24,1.09.5,2.19.75,3.3a21.14,21.14,0,0,0,.95,3.24.22.22,0,0,0,.28.15.21.21,0,0,0,.14-.27C98.15,523.45,97.91,523,97.74,522.35Z" fill="#2f2e41" data-secondary="true"/>
<path d="M123.23,515.89c-1.65.25-3.32.36-5,.52s-3.33.37-5,.62c-.09,0-.09.16,0,.14,1.67-.11,3.32-.23,5-.45s3.31-.47,5-.58C123.39,516.13,123.38,515.88,123.23,515.89Z" fill="#2f2e41" data-secondary="true"/>
<path d="M164.13,544.53c-.65-14.4-1.56-28.78-3-43.14Q160,490.68,158.58,480a152.06,152.06,0,0,0-4.12-20.71,39.52,39.52,0,0,0-6.9-14.6,15.69,15.69,0,0,0-13.93-6.09c-6.23.78-11.38,4.76-15.76,9.08-4.93,4.83-9.45,10.12-14,15.29-1.15,1.31-2.31,2.64-3.45,4a.14.14,0,0,0,0,.18.13.13,0,0,0,.18,0C105,462,109.67,457,114.52,452.25c4.47-4.41,9.1-9.22,15.31-11a15.73,15.73,0,0,1,8.89-.2,14.06,14.06,0,0,1,6.08,3.85,31.76,31.76,0,0,1,6.84,13.31c3.88,13.24,5.27,27.13,6.71,40.8s2.44,27.82,3.11,41.77,1.25,28.07,2.61,42.1c.15,1.73.39,3.45.61,5.16.14,1.17,1.93,1.17,1.84,0C165.44,573.47,164.77,559,164.13,544.53Z" fill="#2f2e41" data-secondary="true"/>
<path d="M117.08,449.24s8.21-15.23-1.56-20.11-42.19,31.47-51.7,84.49c0,0,52.54-23.25,70.39-46.42S131.83,439,117.08,449.24Z" fill="#0071f2" data-primary="true"/>
<path d="M124.79,461.62c-5.91,0-11.78-.45-17.69-.41l3.32-3.72a57,57,0,0,0,4.68-5.37c.09-.12-.1-.29-.21-.2a41.2,41.2,0,0,0-4.47,4.49c-1.56,1.56-3,3.12-4.41,4.68q-3.39,3.68-6.68,7.42v-9.85c0-4.06,0-8.14.32-12.2,0-.15-.24-.14-.24,0-.28,4.07-.7,8.13-.9,12.21-.1,2-.16,4-.17,6v4.87l-1,1.15q-7,8.07-13.55,16.62v-.93c0-.63-.14-1.25-.2-1.87-.16-1.36-.34-2.72-.55-4.06s-.39-2.54-.6-3.8-.58-2.86-.69-4.29a.12.12,0,0,0-.13-.12.12.12,0,0,0-.12.12h0a36.86,36.86,0,0,1,.5,4.32c.12,1.29.25,2.6.36,3.9s.23,2.6.37,3.89l.19,1.88a2.7,2.7,0,0,0,.11.93,2,2,0,0,0,.25.75L81,491c-3,4-5.89,7.94-8.82,11.91-.1.13,0,.3.17.17,2.77-3.61,5.63-7.15,8.51-10.68,2.17.1,4.37,0,6.53-.09s4.56,0,6.83,0c.16,0,.16-.25,0-.23l-6.83.07c-2.08,0-4.21-.09-6.23,0,2.54-3.11,5.11-6.15,7.68-9.21l2.83-3.35a12.84,12.84,0,0,0,2.63.09H97.4l5.83-.08c4,0,8-.2,12-.21a.12.12,0,0,0,.16-.08.13.13,0,0,0-.07-.16h-.09c-4,0-8-.22-12-.33l-5.84-.14H92.47c2.22-2.62,4.42-5.24,6.63-7.79a.39.39,0,0,0,.12-.14c2.16-2.54,4.31-5.09,6.49-7.61l.89-1c6.13.2,12.24-.2,18.37-.08C125,461.87,125,461.62,124.79,461.62Z" fill="#2f2e41" data-secondary="true"/>
<path d="M121.77,472.06H120.4a.11.11,0,0,0,0,.22h1.43C122,472.3,122,472.06,121.77,472.06Z" fill="#2f2e41" data-secondary="true"/>
<path d="M118.59,472.08l-5.68-.13-2.83-.09a10.6,10.6,0,0,0-2.64,0,.09.09,0,0,0,0,.12.08.08,0,0,0,0,0,9.83,9.83,0,0,0,2.65.21h8.51C118.84,472.31,118.74,472.08,118.59,472.08Z" fill="#2f2e41" data-secondary="true"/>
<path d="M102.08,489.81a75.48,75.48,0,0,0-11.62-1.05v.08c3.85.37,7.8.58,11.55,1.2C102.17,490.07,102.23,489.82,102.08,489.81Z" fill="#2f2e41" data-secondary="true"/>
<path d="M86.28,472.91a2.92,2.92,0,0,0-.12-1c-.1-.76-.22-1.56-.33-2.27-.23-1.45-.48-2.89-.76-4.32,0-.14-.25-.1-.24,0,.19,1.56.35,3,.49,4.47L85.5,472a6.15,6.15,0,0,0,.3,2.09.28.28,0,0,0,.39.07.26.26,0,0,0,.11-.14A2.52,2.52,0,0,0,86.28,472.91Z" fill="#2f2e41" data-secondary="true"/>
<path d="M163.6,429.69c-1.87-3.51-4.27-8.13-9-7.8-3.87.23-5.62,4.2-6.46,7.45-2.56,10.12-2.73,20.79-3.23,31.19-1.06,21.82-2,43.81-2.13,65.75V544.5c0,6.24,0,12.47.43,18.71a.46.46,0,0,0,.46.45.45.45,0,0,0,.45-.45c0-5.3-.14-10.6-.17-15.9s0-10.35.11-15.59q.24-15.72.84-31.44c.37-10.41.84-20.81,1.28-31.18q.32-7.8.67-15.59c.23-5,.45-10.07,1-15.09.32-2.81.73-5.62,1.32-8.37a11.57,11.57,0,0,1,2.42-5.63,5.3,5.3,0,0,1,6.86-.5,14.74,14.74,0,0,1,4.85,6.06C163.48,430,163.68,429.83,163.6,429.69Z" fill="#2f2e41" data-secondary="true"/>
<path d="M162.34,428s-3.87-13.63,4.68-6.82c14.18,11.34,14.7,36,14.7,36s-25.24-14.67-28.39-24.34C148.65,418.51,162.34,428,162.34,428Z" fill="#0071f2" data-primary="true"/>
<path d="M176.4,447.1l-.72-1.12a5.53,5.53,0,0,0,0-1.15v-1.77c0-1.15,0-2.3.14-3.46,0-.15-.24-.14-.24,0,0,1.13-.11,2.26-.15,3.39v2.43c-1-1.56-2-3.12-3.11-4.57l-.94-1.28a27.67,27.67,0,0,1,0-4.46c0-1.56,0-3.12.09-4.75a.12.12,0,0,0-.23,0c0,1.63-.14,3.29-.22,4.94a29.56,29.56,0,0,0-.09,3.52c-2.45-3.32-5-6.51-7.64-9.69a.12.12,0,0,0-.19.15c1.56,2,3.12,4.16,4.68,6.24-3-.69-6-1.09-9-1.56-.16,0-.22.22,0,.23,3.12.49,6.33,1.3,9.49,2h0c1.2,1.7,2.4,3.42,3.59,5.13l1.43,2.11h-.14l-1-.14c-.69-.08-1.39-.14-2.09-.19-1.46-.11-2.91-.19-4.38-.27-.16,0-.14.24,0,.24a41.39,41.39,0,0,1,4.29.29l2.26.29,1,.1h.28l2.43,3.58c1.44,2.1,2.7,4.36,4.23,6.4.09.13.25,0,.19-.12A66.05,66.05,0,0,0,176.4,447.1Z" fill="#2f2e41" data-secondary="true"/>
<path d="M170.12,431.71v-1.56a22.08,22.08,0,0,1,.12-3.35.13.13,0,0,0-.07-.16.12.12,0,0,0-.16.08.11.11,0,0,0,0,.08c0,1.09-.13,2.2-.17,3.31v2.43a2.15,2.15,0,0,0,0,.8.11.11,0,0,0,.14.06.17.17,0,0,0,.06-.06,1.84,1.84,0,0,0,0-.74Z" fill="#2f2e41" data-secondary="true"/>
<path d="M167,437.36c-.95-.17-1.9-.22-2.85-.3s-2.08-.17-3.12-.31c-.17,0-.2.23,0,.23,2,.14,4,.49,6,.56C167.08,437.54,167.17,437.37,167,437.36Z" fill="#2f2e41" data-secondary="true"/>
<path d="M175,437.44v2.86a2,2,0,0,0,0,.85m.09,0a.86.86,0,0,0,0-.39v-3.31c0-.11-.3-.23-.09,0Z" fill="#2f2e41" data-secondary="true"/>
<path d="M164.19,502.4c-5.31-4-10.08-9.71-17.15-10-5.89-.23-10,4.21-12.38,9.15a50.15,50.15,0,0,0-2.88,8.14q-1.56,5.58-3,11.24-2.78,11.12-4.68,22.41c-.71,4.19-1.39,8.39-1.92,12.61a107.74,107.74,0,0,0-1.23,12.93.67.67,0,0,0,.73.61.66.66,0,0,0,.58-.47c.74-3.53,1-7.18,1.56-10.75s1.08-7.17,1.69-10.74q1.78-10.72,4.22-21.36c1.56-6.67,3-13.45,5.18-20,1.56-4.67,4-10.11,9.06-11.78,7.65-2.56,14.62,3.93,20.26,8.14C164.15,502.7,164.32,502.5,164.19,502.4Z" fill="#2f2e41" data-secondary="true"/>
<path d="M158.69,498.59s-4.88-14,2.2-16.72c10.6-4.1,38.37,27.18,32.94,75.09,0,0-21.47-11.82-37.31-25.1s-19.89-30.72-12.91-35.16S158.69,498.59,158.69,498.59Z" fill="#0071f2" data-primary="true"/>
<path d="M190.56,546.7a36.73,36.73,0,0,0-2.59-4.83c-.9-1.64-1.82-3.28-2.76-4.9-1.85-3.12-3.68-6.31-5.57-9.45l-.93-1.56a1,1,0,0,1,.12-.56c.1-.45.21-.92.32-1.39.23-1,.42-2.08.6-3.11.39-2,.75-4.14,1.3-6.15,0-.14-.2-.2-.24,0-.43,2.06-1.09,4.07-1.7,6.08-.29,1-.6,2-.87,3-.09.34-.17.68-.26,1-2.28-3.75-4.68-7.46-7.11-11.06a4.85,4.85,0,0,0,.25-1.56c.07-.68.15-1.39.25-2.09.18-1.56.35-3.12.59-4.67a89.42,89.42,0,0,1,1.68-9.19.12.12,0,0,0-.16-.07.12.12,0,0,0-.07.07c-.77,3-1.56,6-2.17,9.11-.28,1.56-.54,3-.75,4.5-.11.77-.18,1.56-.26,2.28a1.63,1.63,0,0,1-.1.69c-.76-1.08-1.56-2.17-2.33-3.23-2.45-3.23-5-6.38-7.55-9.51-.11-.11-.31,0-.2.14a172.05,172.05,0,0,1,12.06,17.63l2.09,3.38-.7-.09c-.89-.11-1.81-.17-2.7-.25l-5.42-.47c-3.62-.29-7.24-.51-10.92-.9a.13.13,0,1,0,0,.25c3.65.42,7.3,1,10.92,1.56q2.69.39,5.38.73a20.45,20.45,0,0,0,4.13.42c1.42,2.31,2.85,4.68,4.26,6.92h-13.1c-.16,0-.14.24,0,.24,2.35,0,4.68.15,7.06.28,1.12,0,2.25.12,3.35.2l1.69.11a3.59,3.59,0,0,0,1.46,0c1.2,2,2.42,3.91,3.64,5.88s2.23,3.62,3.36,5.41a44.48,44.48,0,0,0,3.65,5.47C190.56,546.92,190.68,546.84,190.56,546.7Z" fill="#2f2e41" data-secondary="true"/>
<path d="M180.39,508a33.88,33.88,0,0,1-.95,4.56c-.4,1.56-.86,3.12-1.35,4.6a.15.15,0,1,0,.28.12v0c.47-1.56.89-3,1.26-4.57s.63-3.12,1-4.68C180.67,507.85,180.41,507.8,180.39,508Z" fill="#2f2e41" data-secondary="true"/>
<path d="M164.63,517.33a1.69,1.69,0,0,0-1.17-.44l-2-.28c-1.24-.17-2.51-.31-3.77-.45-2.6-.32-5.22-.56-7.8-.89-.15,0-.2.22,0,.23,2.48.3,4.93.67,7.4,1l3.61.47,1.75.2a6.11,6.11,0,0,1,2,.33C164.63,517.56,164.72,517.4,164.63,517.33Z" fill="#2f2e41" data-secondary="true"/>
<path d="M180.36,538.39c-1.23-.09-2.48-.14-3.71-.17h-2.77a4.58,4.58,0,0,1-1.17,0c-.18,0-.19.26,0,.23a5,5,0,0,1,1.09,0h1l1.87.13c1.23,0,2.48.14,3.71.14C180.5,538.67,180.5,538.41,180.36,538.39Z" fill="#2f2e41" data-secondary="true"/>
<path d="M187.92,533c.14-.7.28-1.4.41-2.12.25-1.37.5-2.76.76-4.13,0-.16-.2-.2-.25,0-.29,1.34-.6,2.7-.9,4-.16.67-.3,1.34-.44,2-.08.31-.14.62-.2.93a2.63,2.63,0,0,0-.11,1c0,.11.19.21.27,0A4.73,4.73,0,0,0,187.92,533Z" fill="#2f2e41" data-secondary="true"/>
<polygon points="115.28 563.52 116.76 580.52 121.85 637.88 166.77 637.88 173.11 580.52 174.98 563.52 115.28 563.52" fill="#2f2e41" data-secondary="true"/>
<polygon points="115.28 563.52 116.76 580.52 173.11 580.52 174.98 563.52 115.28 563.52" opacity="0.2"/>
<rect x="110.84" y="558.89" width="68.6" height="13.78" fill="#2f2e41" data-secondary="true"/>
</svg>